<svg xmlns="http://www.w3.org/2000/svg" viewBox="0 0 800 520" role="img" aria-label="Team collaborating on website design">
  <defs>
    <linearGradient id="bg" x1="0" y1="0" x2="1" y2="1">
      <stop offset="0" stop-color="#1f1b5e" />
      <stop offset="1" stop-color="#1c4f8f" />
    </linearGradient>
    <linearGradient id="card" x1="0" y1="0" x2="1" y2="1">
      <stop offset="0" stop-color="#ffffff" stop-opacity="0.98" />
      <stop offset="1" stop-color="#dbe8ff" stop-opacity="0.95" />
    </linearGradient>
  </defs>

  <rect width="800" height="520" rx="30" fill="url(#bg)" />
  <circle cx="96" cy="84" r="120" fill="#2dd4bf" opacity="0.16" />
  <circle cx="744" cy="42" r="110" fill="#818cf8" opacity="0.2" />

  <g transform="translate(86,96)">
    <rect width="628" height="328" rx="24" fill="url(#card)" />
    <rect x="28" y="28" width="220" height="152" rx="14" fill="#f1f5ff" />
    <rect x="266" y="28" width="334" height="18" rx="9" fill="#c7d8ff" />
    <rect x="266" y="62" width="270" height="14" rx="7" fill="#dbe7ff" />
    <rect x="266" y="88" width="298" height="14" rx="7" fill="#dbe7ff" />

    <rect x="28" y="202" width="572" height="98" rx="14" fill="#eef4ff" />
    <rect x="52" y="226" width="148" height="14" rx="7" fill="#cddcff" />
    <rect x="52" y="252" width="228" height="12" rx="6" fill="#dbe7ff" />
    <rect x="324" y="226" width="138" height="14" rx="7" fill="#cddcff" />
    <rect x="324" y="252" width="230" height="12" rx="6" fill="#dbe7ff" />

    <circle cx="96" cy="104" r="32" fill="#7c8ee6" />
    <circle cx="172" cy="104" r="32" fill="#2bbfba" />
    <circle cx="134" cy="144" r="30" fill="#5f73df" />
  </g>
</svg>
